<?xml version="1.0" standalone="no"?>
<!DOCTYPE svg PUBLIC "-//W3C//DTD SVG 20010904//EN"
 "http://www.w3.org/TR/2001/REC-SVG-20010904/DTD/svg10.dtd">
<svg version="1.0" xmlns="http://www.w3.org/2000/svg"
 width="800.000000pt" height="600.000000pt" viewBox="0 0 800.000000 600.000000"
 preserveAspectRatio="xMidYMid meet">

<g transform="translate(0.000000,600.000000) scale(0.100000,-0.100000)"
fill="#000000" stroke="none">
<path d="M3947 4772 c-14 -16 -17 -43 -17 -174 l0 -155 -57 -12 c-31 -6 -60
-11 -64 -11 -4 0 -8 35 -10 78 -3 67 -8 84 -31 114 -49 64 -69 68 -322 68
-258 0 -303 -9 -368 -77 -74 -78 -73 -71 -73 -428 0 -306 1 -322 21 -366 43
-93 110 -145 234 -181 l45 -13 3 -77 3 -78 -28 -1 c-100 -2 -183 -13 -227 -30
-106 -40 -194 -128 -237 -239 -21 -53 -22 -71 -24 -445 l-2 -390 -174 -5 c-96
-3 348 -6 986 -5 638 0 1008 1 823 2 l-337 3 -3 113 -3 112 61 60 c146 145
244 355 289 620 18 110 35 301 35 414 0 81 1 83 23 78 12 -3 101 -22 197 -41
96 -19 189 -40 205 -46 69 -27 164 -6 222 49 12 12 29 21 38 21 28 0 308 -58
340 -70 146 -56 297 70 356 298 25 97 27 289 4 375 -46 175 -137 291 -246 316
-35 8 -58 7 -114 -9 -38 -10 -131 -31 -205 -46 l-136 -27 -50 36 c-77 55 -117
60 -233 30 -111 -29 -170 -32 -261 -15 -179 33 -353 -5 -467 -103 l-43 -37 0
144 c0 99 -4 148 -12 156 -20 20 -122 15 -141 -6z m131 -4 c8 -8 12 -57 12
-155 l0 -143 -39 -58 c-35 -50 -68 -124 -99 -217 -8 -22 -11 28 -11 187 l-1
217 48 3 47 3 0 75 0 75 -38 3 c-20 2 -35 7 -32 13 9 13 99 11 113 -3z m-48
-88 l0 -70 -45 0 -45 0 0 70 0 70 45 0 45 0 0 -70z m1041 -68 c122 -78 189
-241 189 -462 0 -285 -124 -492 -295 -492 -122 0 -238 142 -276 337 -15 78
-12 254 6 330 31 134 105 253 184 295 57 30 137 26 192 -8z m605 -4 c61 -41
126 -136 155 -226 31 -95 38 -305 14 -405 -23 -99 -79 -209 -127 -253 -204
-184 -438 40 -439 422 0 175 45 323 126 413 53 58 98 80 166 81 48 0 65 -5
105 -32z m-1281 -42 c-53 -52 -86 -125 -84 -180 0 -12 6 2 13 30 19 76 61 141
114 176 45 28 51 29 121 23 41 -3 82 -10 90 -15 10 -6 11 -10 4 -10 -7 0 -28
-16 -48 -35 -103 -104 -144 -304 -145 -706 0 -456 -34 -691 -133 -925 -48
-113 -98 -186 -197 -284 -127 -127 -261 -198 -490 -259 l-115 -31 -358 0 -358
0 3 403 3 402 27 57 c49 105 165 201 268 223 19 4 112 7 207 7 102 -1 175 3
178 8 4 6 -28 10 -84 10 l-91 0 0 71 c0 64 2 70 18 63 9 -4 83 -10 165 -12
l147 -4 2 -46 2 -47 3 48 c4 45 6 47 34 47 41 0 83 23 97 55 7 15 12 72 12
136 l0 110 48 -7 c26 -3 51 -10 56 -15 14 -12 -9 -237 -35 -342 l-21 -88 -42
5 c-39 6 -37 3 11 -15 l23 -8 -34 -76 c-19 -41 -47 -91 -62 -110 -15 -20 -24
-38 -21 -41 13 -13 98 145 134 251 36 105 52 211 63 410 14 263 42 389 115
522 35 62 116 152 155 173 27 14 25 5 -6 -36 -32 -41 -53 -98 -53 -139 1 -23
4 -18 13 21 28 116 100 195 193 214 32 7 63 14 68 15 41 13 39 0 -10 -49z
m-691 -69 c38 -29 72 -74 64 -83 -3 -2 -80 -20 -172 -38 -91 -18 -173 -39
-182 -47 -52 -43 -79 -180 -50 -265 32 -96 38 -100 244 -141 l182 -37 0 -119
c0 -118 0 -119 -29 -148 l-29 -29 -169 0 c-203 0 -239 9 -318 82 -63 58 -95
129 -95 213 l0 55 39 0 c58 0 71 24 71 130 0 106 -13 130 -71 130 -39 0 -39 0
-39 38 0 112 80 231 184 272 44 17 70 20 192 17 137 -2 142 -3 178 -30z m-472
-324 c25 -23 27 -177 1 -205 -22 -24 -118 -25 -145 -1 -25 23 -27 177 -1 205
22 24 118 25 145 1z m658 -37 l41 -27 -7 -62 c-4 -34 -8 -69 -10 -77 -1 -8 -3
-26 -3 -39 -1 -23 -2 -22 -24 10 -12 19 -37 43 -54 54 -24 15 -32 29 -35 55
l-3 35 -60 0 c-59 0 -60 -1 -65 -30 -5 -25 -7 -27 -13 -12 -15 40 -8 75 21 95
41 29 52 32 114 29 41 -2 67 -10 98 -31z m-100 -87 c0 -28 -3 -31 -22 -25 -13
3 -38 6 -55 6 -28 0 -33 3 -33 25 0 24 3 25 55 25 55 0 55 0 55 -31z m284
-1596 l0 -98 -197 -3 c-171 -2 -197 0 -197 13 0 8 5 15 11 15 29 0 224 86 294
129 44 27 82 48 85 46 3 -2 5 -47 4 -102z"/>
<path d="M4903 4569 c-48 -24 -84 -67 -118 -142 -25 -56 -55 -185 -55 -239 l0
-33 18 30 c45 74 145 135 222 135 77 0 177 -61 222 -135 l18 -30 0 32 c0 99
-56 271 -108 330 -33 38 -94 73 -126 73 -17 0 -50 -9 -73 -21z"/>
<path d="M4976 4274 c-27 -26 -38 -54 -43 -108 -6 -65 10 -126 41 -155 92 -87
164 160 74 256 -25 27 -50 29 -72 7z m65 -47 c-13 -13 -26 -3 -16 12 3 6 11 8
17 5 6 -4 6 -10 -1 -17z m13 -49 c8 -14 7 -21 -6 -34 -30 -30 -75 9 -48 42 16
18 39 15 54 -8z"/>
<path d="M5201 4119 c-2 -28 -79 -99 -134 -125 -113 -52 -238 -11 -320 106
-17 25 -17 25 -11 -30 24 -222 128 -373 246 -357 67 9 118 52 160 137 38 76
73 218 65 262 -2 13 -5 16 -6 7z"/>
<path d="M5503 4569 c-202 -100 -233 -622 -48 -802 132 -128 292 -16 340 237
21 111 20 114 -25 63 -83 -94 -197 -122 -297 -72 -68 34 -133 105 -133 144 0
74 139 181 235 181 61 0 160 -53 202 -108 30 -40 33 -41 33 -19 0 51 -30 181
-54 233 -32 70 -58 102 -108 137 -49 32 -88 34 -145 6z"/>
<path d="M5587 4279 c-31 -18 -49 -69 -50 -138 -1 -104 47 -171 103 -141 66
35 68 244 2 279 -25 13 -32 13 -55 0z m63 -44 c0 -8 -4 -15 -9 -15 -13 0 -22
16 -14 24 11 11 23 6 23 -9z m5 -70 c0 -35 -31 -47 -51 -20 -18 25 0 57 29 53
17 -2 22 -10 22 -33z"/>
<path d="M3510 3419 c0 -50 3 -59 18 -58 41 1 55 15 56 56 1 38 -1 41 -36 50
l-38 10 0 -58z"/>
<path d="M3606 3458 c-21 -30 -20 -61 2 -81 24 -22 45 -21 65 1 22 24 21 65
-1 85 -25 23 -48 21 -66 -5z"/>
<path d="M3718 3453 c-28 -7 -24 -59 5 -67 36 -9 37 -8 37 34 0 40 -4 43 -42
33z"/>
<path d="M3587 3331 c-7 -16 -12 -80 -12 -160 l0 -133 -59 -39 c-117 -76 -316
-138 -443 -139 -31 0 -53 -4 -53 -11 0 -7 19 -8 58 -4 236 26 414 102 556 236
l82 78 -4 63 c-3 35 -10 78 -17 97 -11 32 -15 35 -54 36 -37 1 -45 -2 -54 -24z"/>
<path d="M3580 3790 c0 -6 32 -10 75 -10 43 0 75 4 75 10 0 6 -32 10 -75 10
-43 0 -75 -4 -75 -10z"/>
<path d="M3645 3707 c20 -11 19 -43 -1 -51 -9 -4 -14 -9 -11 -13 4 -3 14 0 22
7 12 10 19 10 27 2 7 -7 17 -12 23 -12 5 0 2 5 -7 11 -22 12 -23 45 -3 56 9 6
1 8 -25 8 -26 0 -34 -2 -25 -8z"/>
<path d="M3105 4166 c-26 -19 -34 -150 -12 -180 15 -20 77 -32 77 -15 0 5 -14
9 -30 9 -38 0 -46 19 -44 95 3 75 8 85 43 85 16 0 33 5 36 10 9 15 -48 12 -70
-4z"/>
<path d="M3220 4077 c0 -20 4 -38 8 -41 10 -6 9 60 -1 70 -4 4 -7 -9 -7 -29z"/>
</g>
</svg>
